<?xml version="1.0" encoding="utf-8"?>
<!-- Generator: Adobe Illustrator 19.2.1, SVG Export Plug-In . SVG Version: 6.00 Build 0)  -->
<svg version="1.1" id="Layer_1" xmlns="http://www.w3.org/2000/svg" xmlns:xlink="http://www.w3.org/1999/xlink" x="0px" y="0px"
	 viewBox="0 0 31 39" style="enable-background:new 0 0 31 39;" xml:space="preserve">
<style type="text/css">
	.st0{fill:#FFFFFF;}
	.st1{fill:none;stroke:#D0D0D0;stroke-width:0.5;}
	.st2{fill:#D8D8D8;}
	.st3{fill:#A8A8A8;}
</style>
<title>Group 2</title>
<desc>Created with Sketch.</desc>
<path id="Combined-Shape" class="st0" d="M27,0H0v39h31V4.4L27,0z"/>
<g id="Group-31" transform="translate(4.000000, 6.000000)">
	<g id="Group-29">
		<rect id="Rectangle-111" y="-0.2" class="st1" width="8" height="2.2"/>
		<rect id="Rectangle-111_1_" x="8" y="-0.2" class="st1" width="8" height="2.2"/>
		<rect id="Rectangle-111_2_" x="16" y="-0.2" class="st1" width="8" height="2.2"/>
	</g>
	<g id="Group-29_1_" transform="translate(0.000000, 2.000000)">
		<rect id="Rectangle-111_3_" y="-0.2" class="st1" width="8" height="2.2"/>
		<rect id="Rectangle-111_4_" x="8" y="-0.2" class="st1" width="8" height="2.2"/>
		<rect id="Rectangle-111_5_" x="16" y="-0.2" class="st1" width="8" height="2.2"/>
	</g>
	<g id="Group-29_2_" transform="translate(0.000000, 4.000000)">
		<rect id="Rectangle-111_6_" y="-0.2" class="st1" width="8" height="2.2"/>
		<rect id="Rectangle-111_7_" x="8" y="-0.2" class="st1" width="8" height="2.2"/>
		<rect id="Rectangle-111_8_" x="16" y="-0.2" class="st1" width="8" height="2.2"/>
	</g>
	<g id="Group-29_3_" transform="translate(0.000000, 6.000000)">
		<rect id="Rectangle-111_9_" y="-0.2" class="st1" width="8" height="2.2"/>
		<rect id="Rectangle-111_10_" x="8" y="-0.2" class="st1" width="8" height="2.2"/>
		<rect id="Rectangle-111_11_" x="16" y="-0.2" class="st1" width="8" height="2.2"/>
	</g>
	<g id="Group-29_4_" transform="translate(0.000000, 8.000000)">
		<rect id="Rectangle-111_12_" y="-0.2" class="st1" width="8" height="2.2"/>
		<rect id="Rectangle-111_13_" x="8" y="-0.2" class="st1" width="8" height="2.2"/>
		<rect id="Rectangle-111_14_" x="16" y="-0.2" class="st1" width="8" height="2.2"/>
	</g>
</g>
<g id="Group-31_1_" transform="translate(4.000000, 16.000000)">
	<g id="Group-29_5_">
		<rect id="Rectangle-111_15_" y="-0.2" class="st1" width="8" height="2.2"/>
		<rect id="Rectangle-111_16_" x="8" y="-0.2" class="st1" width="8" height="2.2"/>
		<rect id="Rectangle-111_17_" x="16" y="-0.2" class="st1" width="8" height="2.2"/>
	</g>
	<g id="Group-29_6_" transform="translate(0.000000, 2.000000)">
		<rect id="Rectangle-111_18_" y="-0.2" class="st1" width="8" height="2.2"/>
		<rect id="Rectangle-111_19_" x="8" y="-0.2" class="st1" width="8" height="2.2"/>
		<rect id="Rectangle-111_20_" x="16" y="-0.2" class="st1" width="8" height="2.2"/>
	</g>
	<g id="Group-29_7_" transform="translate(0.000000, 4.000000)">
		<rect id="Rectangle-111_21_" y="-0.2" class="st1" width="8" height="2.2"/>
		<rect id="Rectangle-111_22_" x="8" y="-0.2" class="st1" width="8" height="2.2"/>
		<rect id="Rectangle-111_23_" x="16" y="-0.2" class="st1" width="8" height="2.2"/>
	</g>
	<g id="Group-29_8_" transform="translate(0.000000, 6.000000)">
		<rect id="Rectangle-111_24_" y="-0.2" class="st1" width="8" height="2.2"/>
		<rect id="Rectangle-111_25_" x="8" y="-0.2" class="st1" width="8" height="2.2"/>
		<rect id="Rectangle-111_26_" x="16" y="-0.2" class="st1" width="8" height="2.2"/>
	</g>
	<g id="Group-29_9_" transform="translate(0.000000, 8.000000)">
		<rect id="Rectangle-111_27_" y="-0.2" class="st1" width="8" height="2.2"/>
		<rect id="Rectangle-111_28_" x="8" y="-0.2" class="st1" width="8" height="2.2"/>
		<rect id="Rectangle-111_29_" x="16" y="-0.2" class="st1" width="8" height="2.2"/>
	</g>
</g>
<g id="Group-31_2_" transform="translate(4.000000, 24.000000)">
	<g id="Group-29_10_">
		<rect id="Rectangle-111_30_" y="-0.2" class="st1" width="8" height="2.2"/>
		<rect id="Rectangle-111_31_" x="8" y="-0.2" class="st1" width="8" height="2.2"/>
		<rect id="Rectangle-111_32_" x="16" y="-0.2" class="st1" width="8" height="2.2"/>
	</g>
	<g id="Group-29_11_" transform="translate(0.000000, 2.000000)">
		<rect id="Rectangle-111_33_" y="-0.2" class="st1" width="8" height="2.2"/>
		<rect id="Rectangle-111_34_" x="8" y="-0.2" class="st1" width="8" height="2.2"/>
		<rect id="Rectangle-111_35_" x="16" y="-0.2" class="st1" width="8" height="2.2"/>
	</g>
	<g id="Group-29_12_" transform="translate(0.000000, 4.000000)">
		<rect id="Rectangle-111_36_" y="-0.2" class="st1" width="8" height="2.2"/>
		<rect id="Rectangle-111_37_" x="8" y="-0.2" class="st1" width="8" height="2.2"/>
		<rect id="Rectangle-111_38_" x="16" y="-0.2" class="st1" width="8" height="2.2"/>
	</g>
	<g id="Group-29_13_" transform="translate(0.000000, 6.000000)">
		<rect id="Rectangle-111_39_" y="-0.2" class="st1" width="8" height="2.2"/>
		<rect id="Rectangle-111_40_" x="8" y="-0.2" class="st1" width="8" height="2.2"/>
		<rect id="Rectangle-111_41_" x="16" y="-0.2" class="st1" width="8" height="2.2"/>
	</g>
	<g id="Group-29_14_" transform="translate(0.000000, 8.000000)">
		<rect id="Rectangle-111_42_" y="-0.2" class="st1" width="8" height="2.2"/>
		<rect id="Rectangle-111_43_" x="8" y="-0.2" class="st1" width="8" height="2.2"/>
		<rect id="Rectangle-111_44_" x="16" y="-0.2" class="st1" width="8" height="2.2"/>
	</g>
</g>
<polygon id="Path-15" class="st2" points="27,0 31,4.4 27,4.4 "/>
<g id="Group-28" transform="translate(10.000000, 18.000000)">
	<rect id="Rectangle-6" y="7.3" class="st3" width="4.1" height="9.7"/>
	<rect id="Rectangle-6_1_" x="5.5" y="-1" class="st3" width="4.1" height="18"/>
	<rect id="Rectangle-6_2_" x="10.9" y="3.2" class="st3" width="4.1" height="13.8"/>
</g>
</svg>
