<svg id="Layer_1" data-name="Layer 1" xmlns="http://www.w3.org/2000/svg" viewBox="0 0 146.45 48.82"><defs><style>.cls-1{fill:none;stroke:#000;stroke-miterlimit:10;stroke-width:3px;}</style></defs><title>Artboard 1</title><path d="M54.82,8.51a15.9,15.9,0,0,1,0,31.8H24.75a15.9,15.9,0,0,1,0-31.8H54.82m0-3H24.75a19,19,0,0,0-18.9,18.9h0a19,19,0,0,0,18.9,18.9H54.82a19,19,0,0,0,18.9-18.9h0a19,19,0,0,0-18.9-18.9Z"/><path d="M121.69,8.51a15.9,15.9,0,0,1,0,31.8H91.62a15.9,15.9,0,0,1,0-31.8h30.07m0-3H91.62a19,19,0,0,0-18.9,18.9h0a19,19,0,0,0,18.9,18.9h30.07a19,19,0,0,0,18.9-18.9h0a19,19,0,0,0-18.9-18.9Z"/><line class="cls-1" x1="39.79" y1="24.41" x2="106.66" y2="24.41"/></svg>