<svg id="Layer_1" data-name="Layer 1" xmlns="http://www.w3.org/2000/svg" viewBox="0 0 234.11 233.56"><defs><style>.cls-1{fill:#444;}.cls-2{fill:#fff;}</style></defs><title>Artboard 1</title><rect class="cls-1" x="0.34" y="0.13" width="233.43" height="233.43"/><path class="cls-2" d="M88.15,77.9a149,149,0,0,1,24.61-1.67c11.23,0,19.23,2.15,24.61,6.45a23.54,23.54,0,0,1,8.6,18.63c0,7.88-2.63,14.57-7.41,19.11-6.21,5.85-15.41,8.48-26.16,8.48a45.79,45.79,0,0,1-6.21-.36v28.79h-18Zm18,36.55a27.81,27.81,0,0,0,6.09.48c9.67,0,15.65-4.9,15.65-13.14,0-7.41-5.14-11.82-14.21-11.82a31,31,0,0,0-7.52.72Z"/></svg>