<?xml version="1.0" encoding="utf-8"?>
<!-- Generator: Adobe Illustrator 19.2.1, SVG Export Plug-In . SVG Version: 6.00 Build 0)  -->
<svg version="1.1" xmlns="http://www.w3.org/2000/svg" xmlns:xlink="http://www.w3.org/1999/xlink" x="0px" y="0px"
	 viewBox="0 0 146.4 147.8" style="enable-background:new 0 0 146.4 147.8;" xml:space="preserve">
<style type="text/css">
	.st0{display:none;}
	.st1{display:inline;}
	.st2{fill:#828282;stroke:#919191;stroke-width:6;stroke-miterlimit:10;}
	.st3{fill:none;stroke:#5E5E5E;stroke-width:3;stroke-miterlimit:10;}
	.st4{fill:#6D6D6D;}
</style>
<g id="Layer_1" class="st0">
	<title>Artboard 1</title>
	<g class="st1">
		<path class="st2" d="M55.4,58.5c8.5,0,15.4,6.9,15.4,15.4c0,8.5-6.9,15.4-15.4,15.4H26.2c-8.5,0-15.4-6.9-15.4-15.4
			s6.9-15.4,15.4-15.4L55.4,58.5 M55.4,55.6H26.2C16.1,55.6,7.9,63.8,7.8,73.9l0,0C7.9,84,16.1,92.2,26.2,92.3h29.2
			c10.1-0.1,18.3-8.2,18.3-18.3l0,0C73.7,63.8,65.5,55.6,55.4,55.6z"/>
		<path class="st2" d="M120.3,58.5c8.5,0,15.4,6.9,15.4,15.4c0,8.5-6.9,15.4-15.4,15.4H91.1c-8.5,0-15.4-6.9-15.4-15.4
			s6.9-15.4,15.4-15.4l0,0L120.3,58.5 M120.3,55.6H91.1C81,55.6,72.8,63.8,72.7,73.9l0,0C72.8,84,81,92.2,91.1,92.3h29.2
			c10.1-0.1,18.3-8.2,18.3-18.3l0,0C138.6,63.8,130.4,55.6,120.3,55.6z"/>
		<line class="st3" x1="40.8" y1="73.9" x2="105.7" y2="73.9"/>
	</g>
</g>
<g id="Layer_2">
	<g>
		<rect x="34" y="58.7" class="st4" width="34.4" height="30.4"/>
		<polygon class="st4" points="112.5,73.9 63.3,100.1 63.3,47.8 		"/>
	</g>
</g>
</svg>
