<svg id="Layer_1" data-name="Layer 1" xmlns="http://www.w3.org/2000/svg" viewBox="0 0 234.11 233.56"><defs><style>.cls-1{fill:#232323;}</style></defs><title>Artboard 1</title><path class="cls-1" d="M75.34,60.66c8.1-1.38,19.48-2.41,35.51-2.41,16.21,0,27.76,3.1,35.51,9.31,7.41,5.86,12.41,15.52,12.41,26.9s-3.79,21-10.69,27.58c-9,8.45-22.24,12.24-37.76,12.24a66.09,66.09,0,0,1-9-.52v41.55h-26Zm26,52.75a40.13,40.13,0,0,0,8.79.69c14,0,22.58-7.07,22.58-19,0-10.69-7.41-17.07-20.52-17.07a44.73,44.73,0,0,0-10.86,1Z"/></svg>