<?xml version="1.0" encoding="utf-8"?>
<!-- Generator: Adobe Illustrator 19.2.1, SVG Export Plug-In . SVG Version: 6.00 Build 0)  -->
<svg version="1.1" id="Layer_1" xmlns="http://www.w3.org/2000/svg" xmlns:xlink="http://www.w3.org/1999/xlink" x="0px" y="0px"
	 viewBox="0 0 146.4 147.8" style="enable-background:new 0 0 146.4 147.8;" xml:space="preserve">
<style type="text/css">
	.st0{fill:none;stroke:#000000;stroke-width:3;stroke-miterlimit:10;}
</style>
<title>Artboard 1</title>
<g>
	<path d="M63.7,65.7c4.6,0,8.2,3.7,8.2,8.2c0,4.6-3.7,8.2-8.2,8.2H48.1c-4.6,0-8.2-3.7-8.2-8.2c0-4.6,3.7-8.2,8.2-8.2H63.7
		 M63.7,64.1H48.1c-5.4,0-9.8,4.4-9.8,9.8l0,0c0,5.4,4.4,9.8,9.8,9.8h15.6c5.4,0,9.8-4.4,9.8-9.8l0,0C73.5,68.5,69.1,64.1,63.7,64.1
		z"/>
	<path d="M98.4,65.7c4.6,0,8.2,3.7,8.2,8.2c0,4.6-3.7,8.2-8.2,8.2H82.8c-4.6,0-8.2-3.7-8.2-8.2c0-4.6,3.7-8.2,8.2-8.2l0,0H98.4
		 M98.4,64.1H82.8c-5.4,0-9.8,4.4-9.8,9.8l0,0c0,5.4,4.4,9.8,9.8,9.8h15.6c5.4,0,9.8-4.4,9.8-9.8l0,0
		C108.1,68.5,103.8,64.1,98.4,64.1z"/>
	<line class="st0" x1="55.9" y1="73.9" x2="90.6" y2="73.9"/>
</g>
</svg>
