<svg id="Layer_1" data-name="Layer 1" xmlns="http://www.w3.org/2000/svg" viewBox="0 0 234.11 233.56"><defs><style>.cls-1{fill:none;stroke:#515151;stroke-miterlimit:10;stroke-width:5px;}.cls-2{fill:#8e8e8e;}.cls-3{fill:#444;}.cls-4{fill:#fff;}</style></defs><title>Artboard 1</title><circle class="cls-1" cx="117.06" cy="170.85" r="6.97"/><rect class="cls-2" x="35.78" y="69.68" width="162.56" height="94.2"/><rect class="cls-3" x="35.78" y="78.94" width="162.56" height="75.54"/><path class="cls-4" d="M103.59,94.49a74.86,74.86,0,0,1,12.36-.84c5.64,0,9.66,1.08,12.36,3.24a11.82,11.82,0,0,1,4.32,9.36,12.92,12.92,0,0,1-3.72,9.6c-3.12,2.94-7.74,4.26-13.14,4.26a23,23,0,0,1-3.12-.18v14.46h-9.06Zm9.06,18.36a14,14,0,0,0,3.06.24c4.86,0,7.86-2.46,7.86-6.6,0-3.72-2.58-5.94-7.14-5.94a15.57,15.57,0,0,0-3.78.36Z"/></svg>