<?xml version="1.0" encoding="utf-8"?>
<!-- Generator: Adobe Illustrator 19.2.1, SVG Export Plug-In . SVG Version: 6.00 Build 0)  -->
<svg version="1.1" id="Layer_1" xmlns="http://www.w3.org/2000/svg" xmlns:xlink="http://www.w3.org/1999/xlink" x="0px" y="0px"
	 viewBox="0 0 33 28" style="enable-background:new 0 0 33 28;" xml:space="preserve">
<style type="text/css">
	.st0{fill:#ABC5D4;}
</style>
<title>Group 2</title>
<desc>Created with Sketch.</desc>
<path id="Rectangle-2" class="st0" d="M4,1h25c1.7,0,3,1.3,3,3l0,0c0,1.7-1.3,3-3,3H4C2.3,7,1,5.7,1,4l0,0C1,2.3,2.3,1,4,1z"/>
<path id="Rectangle-2_1_" class="st0" d="M4,11h25c1.7,0,3,1.3,3,3l0,0c0,1.7-1.3,3-3,3H4c-1.7,0-3-1.3-3-3l0,0C1,12.3,2.3,11,4,11z
	"/>
<path id="Rectangle-2_2_" class="st0" d="M4,21h25c1.7,0,3,1.3,3,3l0,0c0,1.7-1.3,3-3,3H4c-1.7,0-3-1.3-3-3l0,0C1,22.3,2.3,21,4,21z
	"/>
</svg>
